# xmcd
#
# Track frame offsets:
#	150
#	16155
#	34638
#	57901
#	71412
#	83890
#	99069
#	113125
#	126765
#	145406
#	157980
#	170588
#	196354
#	211377
#
# Disc length: 3002 seconds
#
# Revision: 0
# Processed by: cddbd v1.5.2PL0 Copyright (c) Steve Scherf et al.
# Submitted via: audiograbber 1.83.01
#
DISCID=b50bb80e
DTITLE=The Supremes - Stoned Love
DYEAR=1979
DGENRE=Pop
TTITLE0=Together We Can Make Such Sweet Music
TTITLE1=Stoned Love
TTITLE2=It's Time To Break Down
TTITLE3=I Wish I Were Your Mirror
TTITLE4=Here Comes The Sunrise
TTITLE5=This Is The Story
TTITLE6=River Deep, Mountain High
TTITLE7=Nathan Jones
TTITLE8=Come Together
TTITLE9=Na Na Hey Hey Kiss Him Goodbye
TTITLE10=Thank Him For Today
TTITLE11=Bridge Over Troubled Water
TTITLE12=Love It Came To Me This Time
TTITLE13=Bad Weather
EXTD=
EXTT0=
EXTT1=
EXTT2=
EXTT3=
EXTT4=
EXTT5=
EXTT6=
EXTT7=
EXTT8=
EXTT9=
EXTT10=
EXTT11=
EXTT12=
EXTT13=
PLAYORDER=
